<svg width="55" height="58" viewBox="0 0 55 58" fill="none" xmlns="http://www.w3.org/2000/svg">
<path d="M22.4036 56.6026C14.62 53.2853 23.1957 35.6366 23.1957 35.6366C23.1957 35.6366 11.6583 51.7157 4.77903 46.882C1.75756 44.7589 0.40095 42.4593 0.0263486 38.8768C-0.829173 30.695 19.4331 29.1562 19.4331 29.1562C19.4331 29.1562 -0.829177 27.6175 0.0263486 19.4357C0.400952 15.8532 1.75756 13.5535 4.77903 11.4305C11.6583 6.59679 23.1957 22.6759 23.1957 22.6759C23.1957 22.6759 14.62 5.02721 22.4036 1.70994C25.7978 0.263354 28.5147 0.263354 31.9089 1.70994C39.6925 5.02721 31.1168 22.6759 31.1168 22.6759C31.1168 22.6759 42.6542 6.59679 49.5335 11.4305C52.5549 13.5535 53.9116 15.8532 54.2862 19.4357C55.1417 27.6175 34.8794 29.1562 34.8794 29.1562C34.8794 29.1562 55.1417 30.695 54.2862 38.8768C53.9116 42.4593 52.5549 44.7589 49.5335 46.882C42.6542 51.7157 31.1168 35.6366 31.1168 35.6366C31.1168 35.6366 39.6925 53.2853 31.9089 56.6026C28.5147 58.0491 25.7978 58.0491 22.4036 56.6026Z" fill="#D9D9D9"/>
<path d="M22.4036 56.6026C14.62 53.2853 23.1957 35.6366 23.1957 35.6366C23.1957 35.6366 11.6583 51.7157 4.77903 46.882C1.75756 44.7589 0.40095 42.4593 0.0263486 38.8768C-0.829173 30.695 19.4331 29.1562 19.4331 29.1562C19.4331 29.1562 -0.829177 27.6175 0.0263486 19.4357C0.400952 15.8532 1.75756 13.5535 4.77903 11.4305C11.6583 6.59679 23.1957 22.6759 23.1957 22.6759C23.1957 22.6759 14.62 5.02721 22.4036 1.70994C25.7978 0.263354 28.5147 0.263354 31.9089 1.70994C39.6925 5.02721 31.1168 22.6759 31.1168 22.6759C31.1168 22.6759 42.6542 6.59679 49.5335 11.4305C52.5549 13.5535 53.9116 15.8532 54.2862 19.4357C55.1417 27.6175 34.8794 29.1562 34.8794 29.1562C34.8794 29.1562 55.1417 30.695 54.2862 38.8768C53.9116 42.4593 52.5549 44.7589 49.5335 46.882C42.6542 51.7157 31.1168 35.6366 31.1168 35.6366C31.1168 35.6366 39.6925 53.2853 31.9089 56.6026C28.5147 58.0491 25.7978 58.0491 22.4036 56.6026Z" stroke="#D9D9D9"/>
</svg>
