<svg width="1473" height="469" viewBox="0 0 1473 469" fill="none" xmlns="http://www.w3.org/2000/svg">
<mask id="path-1-outside-1_253_3" maskUnits="userSpaceOnUse" x="0" y="0" width="1473" height="469" fill="black">
<rect fill="white" width="1473" height="469"/>
<path d="M56.4468 309.51C56.4468 324.45 57.9986 337.107 61.1023 347.482C64.2059 357.857 68.2645 366.364 73.2781 373.004C78.5304 379.229 84.6183 384.001 91.5418 387.321C98.4653 390.226 105.628 391.679 113.029 391.679C118.042 391.679 123.414 391.056 129.144 389.811C134.873 388.151 140.245 385.246 145.259 381.096C150.272 376.946 154.45 371.344 157.793 364.289C161.135 356.819 162.806 347.482 162.806 336.277C162.806 324.242 160.538 314.49 156.002 307.02C151.705 299.55 145.975 293.325 138.813 288.345C131.65 283.365 123.533 279.008 114.461 275.273C105.389 271.538 96.1973 267.388 86.8863 262.823C77.3367 258.673 68.0258 253.693 58.9536 247.884C49.8814 241.659 41.7642 233.774 34.602 224.229C27.4397 214.684 21.5906 202.857 17.0545 188.747C12.7571 174.222 10.6085 156.792 10.6085 136.458C10.6085 113.633 13.354 93.921 18.845 77.3213C24.5748 60.3065 31.9758 46.1968 41.048 34.992C50.1202 23.7871 60.3861 15.4873 71.8456 10.0923C83.3052 4.69745 94.7648 2 106.224 2C119.594 2 132.367 4.69745 144.542 10.0923C156.957 15.0723 167.939 23.3721 177.489 34.992C187.038 46.6118 194.559 61.5515 200.05 79.8112C205.78 97.6559 208.644 119.443 208.644 145.173H154.211C153.734 131.893 152.063 120.896 149.198 112.181C146.572 103.466 142.991 96.6185 138.454 91.6385C133.918 86.6586 128.666 83.1312 122.698 81.0562C116.968 78.9812 110.641 77.9438 103.718 77.9438C99.1815 77.9438 94.6454 78.7738 90.1094 80.4337C85.5733 82.0937 81.3953 84.9987 77.5754 89.1486C73.9943 93.2985 71.01 98.4859 68.6226 104.711C66.2352 110.936 65.0415 118.821 65.0415 128.365C65.0415 137.08 65.9965 144.135 67.9064 149.53C69.8163 154.925 73.5168 159.905 79.0079 164.47C84.7377 169.035 92.4968 173.6 102.285 178.165C112.312 182.73 125.324 188.539 141.319 195.594C146.094 197.254 152.66 200.367 161.016 204.932C169.61 209.082 178.086 215.929 186.442 225.474C194.797 235.019 201.96 247.884 207.928 264.068C214.136 279.838 217.239 300.173 217.239 325.072C217.239 345.407 214.971 364.289 210.435 381.719C205.899 399.149 199.095 414.296 190.023 427.161C181.189 439.61 170.088 449.363 156.718 456.418C143.587 463.473 128.308 467 110.88 467C96.7941 467 83.0665 463.888 69.697 457.663C56.5662 451.853 44.8679 442.515 34.602 429.651C24.5748 416.786 16.577 400.394 10.6085 380.474C4.63993 360.554 1.77503 336.9 2.01377 309.51H56.4468ZM371.018 161.98C370.063 150.775 367.914 140.608 364.572 131.478C361.229 121.933 357.051 113.633 352.038 106.578C347.024 99.5234 341.294 94.1285 334.848 90.3935C328.641 86.2436 322.076 84.1687 315.152 84.1687C302.499 84.1687 291.755 88.5261 282.922 97.241C274.089 105.541 266.926 116.953 261.435 131.478C255.944 145.588 251.886 161.772 249.259 180.032C246.872 198.292 245.678 217.174 245.678 236.679C245.678 255.353 246.872 273.613 249.259 291.458C251.886 308.888 255.944 324.657 261.435 338.767C266.926 352.877 274.089 364.289 282.922 373.004C291.755 381.304 302.499 385.454 315.152 385.454C332.341 385.454 345.711 376.324 355.261 358.064C365.049 339.805 371.018 315.735 373.166 285.855H427.599C426.167 313.66 422.466 338.767 416.498 361.177C410.529 383.586 402.651 402.676 392.862 418.446C383.074 434.216 371.614 446.25 358.484 454.55C345.353 462.85 330.909 467 315.152 467C295.575 467 277.908 461.19 262.151 449.57C246.633 437.535 233.502 421.143 222.759 400.394C212.016 379.644 203.779 355.367 198.049 327.562C192.32 299.343 189.455 269.048 189.455 236.679C189.455 203.479 192.32 172.77 198.049 144.55C203.779 115.916 212.016 91.016 222.759 69.8514C233.502 48.6867 246.633 32.087 262.151 20.0522C277.908 8.0174 295.575 2 315.152 2C329.238 2 342.488 5.52743 354.902 12.5823C367.556 19.6372 378.777 30.012 388.565 43.7068C398.592 56.9866 406.829 73.5863 413.275 93.506C419.721 113.426 423.779 136.25 425.451 161.98H371.018ZM472.081 213.647H533.676C546.568 213.647 556.237 208.667 562.683 198.707C569.129 188.747 572.352 172.562 572.352 150.153C572.352 128.573 569.129 113.011 562.683 103.466C556.237 93.506 546.568 88.5261 533.676 88.5261H472.081V213.647ZM415.857 12.5823H553.73C565.19 12.5823 575.456 15.9023 584.528 22.5422C593.839 28.7671 601.717 37.4819 608.163 48.6867C614.848 59.8916 619.862 72.9638 623.204 87.9036C626.785 102.428 628.576 118.198 628.576 135.213C628.576 161.357 625.353 183.975 618.907 203.064C612.699 222.154 602.434 236.679 588.109 246.639V247.884C595.033 251.203 600.762 256.391 605.298 263.446C609.835 270.086 613.535 278.178 616.4 287.723C619.265 296.853 621.294 307.02 622.488 318.225C623.92 329.43 624.875 340.635 625.353 351.839C625.591 358.894 625.83 367.194 626.069 376.739C626.308 386.284 626.666 396.036 627.143 405.996C627.859 415.956 628.814 425.501 630.008 434.63C631.441 443.345 633.47 450.815 636.096 457.04H579.872C576.769 442.93 574.859 426.123 574.143 406.618C573.426 387.114 572.352 368.439 570.92 350.594C569.01 327.355 564.951 310.34 558.744 299.55C552.537 288.76 542.39 283.365 528.304 283.365H472.081V457.04H415.857V12.5823ZM669.286 236.679C669.286 255.353 670.479 273.613 672.867 291.458C675.493 308.888 679.552 324.657 685.043 338.767C690.534 352.877 697.696 364.289 706.529 373.004C715.363 381.304 726.106 385.454 738.759 385.454C751.413 385.454 762.156 381.304 770.99 373.004C779.823 364.289 786.985 352.877 792.476 338.767C797.967 324.657 801.907 308.888 804.294 291.458C806.92 273.613 808.233 255.353 808.233 236.679C808.233 217.174 806.92 198.292 804.294 180.032C801.907 161.772 797.967 145.588 792.476 131.478C786.985 116.953 779.823 105.541 770.99 97.241C762.156 88.5261 751.413 84.1687 738.759 84.1687C726.106 84.1687 715.363 88.5261 706.529 97.241C697.696 105.541 690.534 116.953 685.043 131.478C679.552 145.588 675.493 161.772 672.867 180.032C670.479 198.292 669.286 217.174 669.286 236.679ZM613.062 236.679C613.062 203.479 615.927 172.77 621.657 144.55C627.387 115.916 635.623 91.016 646.367 69.8514C657.11 48.6867 670.241 32.087 685.759 20.0522C701.516 8.0174 719.183 2 738.759 2C758.575 2 776.242 8.0174 791.76 20.0522C807.278 32.087 820.409 48.6867 831.152 69.8514C841.896 91.016 850.132 115.916 855.862 144.55C861.592 172.77 864.457 203.479 864.457 236.679C864.457 269.048 861.592 299.343 855.862 327.562C850.132 355.367 841.896 379.644 831.152 400.394C820.409 421.143 807.278 437.535 791.76 449.57C776.242 461.19 758.575 467 738.759 467C719.183 467 701.516 461.19 685.759 449.57C670.241 437.535 657.11 421.143 646.367 400.394C635.623 379.644 627.387 355.367 621.657 327.562C615.927 299.343 613.062 269.048 613.062 236.679ZM852.754 12.5823H908.977V374.871H1033.6V457.04H852.754V12.5823ZM1014.9 12.5823H1071.12V374.871H1195.74V457.04H1014.9V12.5823ZM1226.58 12.5823H1282.8V457.04H1226.58V12.5823ZM1338.64 94.751H1262V12.5823H1471.5V94.751H1394.86V457.04H1338.64V94.751Z"/>
</mask>
<path d="M56.4468 309.51C56.4468 324.45 57.9986 337.107 61.1023 347.482C64.2059 357.857 68.2645 366.364 73.2781 373.004C78.5304 379.229 84.6183 384.001 91.5418 387.321C98.4653 390.226 105.628 391.679 113.029 391.679C118.042 391.679 123.414 391.056 129.144 389.811C134.873 388.151 140.245 385.246 145.259 381.096C150.272 376.946 154.45 371.344 157.793 364.289C161.135 356.819 162.806 347.482 162.806 336.277C162.806 324.242 160.538 314.49 156.002 307.02C151.705 299.55 145.975 293.325 138.813 288.345C131.65 283.365 123.533 279.008 114.461 275.273C105.389 271.538 96.1973 267.388 86.8863 262.823C77.3367 258.673 68.0258 253.693 58.9536 247.884C49.8814 241.659 41.7642 233.774 34.602 224.229C27.4397 214.684 21.5906 202.857 17.0545 188.747C12.7571 174.222 10.6085 156.792 10.6085 136.458C10.6085 113.633 13.354 93.921 18.845 77.3213C24.5748 60.3065 31.9758 46.1968 41.048 34.992C50.1202 23.7871 60.3861 15.4873 71.8456 10.0923C83.3052 4.69745 94.7648 2 106.224 2C119.594 2 132.367 4.69745 144.542 10.0923C156.957 15.0723 167.939 23.3721 177.489 34.992C187.038 46.6118 194.559 61.5515 200.05 79.8112C205.78 97.6559 208.644 119.443 208.644 145.173H154.211C153.734 131.893 152.063 120.896 149.198 112.181C146.572 103.466 142.991 96.6185 138.454 91.6385C133.918 86.6586 128.666 83.1312 122.698 81.0562C116.968 78.9812 110.641 77.9438 103.718 77.9438C99.1815 77.9438 94.6454 78.7738 90.1094 80.4337C85.5733 82.0937 81.3953 84.9987 77.5754 89.1486C73.9943 93.2985 71.01 98.4859 68.6226 104.711C66.2352 110.936 65.0415 118.821 65.0415 128.365C65.0415 137.08 65.9965 144.135 67.9064 149.53C69.8163 154.925 73.5168 159.905 79.0079 164.47C84.7377 169.035 92.4968 173.6 102.285 178.165C112.312 182.73 125.324 188.539 141.319 195.594C146.094 197.254 152.66 200.367 161.016 204.932C169.61 209.082 178.086 215.929 186.442 225.474C194.797 235.019 201.96 247.884 207.928 264.068C214.136 279.838 217.239 300.173 217.239 325.072C217.239 345.407 214.971 364.289 210.435 381.719C205.899 399.149 199.095 414.296 190.023 427.161C181.189 439.61 170.088 449.363 156.718 456.418C143.587 463.473 128.308 467 110.88 467C96.7941 467 83.0665 463.888 69.697 457.663C56.5662 451.853 44.8679 442.515 34.602 429.651C24.5748 416.786 16.577 400.394 10.6085 380.474C4.63993 360.554 1.77503 336.9 2.01377 309.51H56.4468ZM371.018 161.98C370.063 150.775 367.914 140.608 364.572 131.478C361.229 121.933 357.051 113.633 352.038 106.578C347.024 99.5234 341.294 94.1285 334.848 90.3935C328.641 86.2436 322.076 84.1687 315.152 84.1687C302.499 84.1687 291.755 88.5261 282.922 97.241C274.089 105.541 266.926 116.953 261.435 131.478C255.944 145.588 251.886 161.772 249.259 180.032C246.872 198.292 245.678 217.174 245.678 236.679C245.678 255.353 246.872 273.613 249.259 291.458C251.886 308.888 255.944 324.657 261.435 338.767C266.926 352.877 274.089 364.289 282.922 373.004C291.755 381.304 302.499 385.454 315.152 385.454C332.341 385.454 345.711 376.324 355.261 358.064C365.049 339.805 371.018 315.735 373.166 285.855H427.599C426.167 313.66 422.466 338.767 416.498 361.177C410.529 383.586 402.651 402.676 392.862 418.446C383.074 434.216 371.614 446.25 358.484 454.55C345.353 462.85 330.909 467 315.152 467C295.575 467 277.908 461.19 262.151 449.57C246.633 437.535 233.502 421.143 222.759 400.394C212.016 379.644 203.779 355.367 198.049 327.562C192.32 299.343 189.455 269.048 189.455 236.679C189.455 203.479 192.32 172.77 198.049 144.55C203.779 115.916 212.016 91.016 222.759 69.8514C233.502 48.6867 246.633 32.087 262.151 20.0522C277.908 8.0174 295.575 2 315.152 2C329.238 2 342.488 5.52743 354.902 12.5823C367.556 19.6372 378.777 30.012 388.565 43.7068C398.592 56.9866 406.829 73.5863 413.275 93.506C419.721 113.426 423.779 136.25 425.451 161.98H371.018ZM472.081 213.647H533.676C546.568 213.647 556.237 208.667 562.683 198.707C569.129 188.747 572.352 172.562 572.352 150.153C572.352 128.573 569.129 113.011 562.683 103.466C556.237 93.506 546.568 88.5261 533.676 88.5261H472.081V213.647ZM415.857 12.5823H553.73C565.19 12.5823 575.456 15.9023 584.528 22.5422C593.839 28.7671 601.717 37.4819 608.163 48.6867C614.848 59.8916 619.862 72.9638 623.204 87.9036C626.785 102.428 628.576 118.198 628.576 135.213C628.576 161.357 625.353 183.975 618.907 203.064C612.699 222.154 602.434 236.679 588.109 246.639V247.884C595.033 251.203 600.762 256.391 605.298 263.446C609.835 270.086 613.535 278.178 616.4 287.723C619.265 296.853 621.294 307.02 622.488 318.225C623.92 329.43 624.875 340.635 625.353 351.839C625.591 358.894 625.83 367.194 626.069 376.739C626.308 386.284 626.666 396.036 627.143 405.996C627.859 415.956 628.814 425.501 630.008 434.63C631.441 443.345 633.47 450.815 636.096 457.04H579.872C576.769 442.93 574.859 426.123 574.143 406.618C573.426 387.114 572.352 368.439 570.92 350.594C569.01 327.355 564.951 310.34 558.744 299.55C552.537 288.76 542.39 283.365 528.304 283.365H472.081V457.04H415.857V12.5823ZM669.286 236.679C669.286 255.353 670.479 273.613 672.867 291.458C675.493 308.888 679.552 324.657 685.043 338.767C690.534 352.877 697.696 364.289 706.529 373.004C715.363 381.304 726.106 385.454 738.759 385.454C751.413 385.454 762.156 381.304 770.99 373.004C779.823 364.289 786.985 352.877 792.476 338.767C797.967 324.657 801.907 308.888 804.294 291.458C806.92 273.613 808.233 255.353 808.233 236.679C808.233 217.174 806.92 198.292 804.294 180.032C801.907 161.772 797.967 145.588 792.476 131.478C786.985 116.953 779.823 105.541 770.99 97.241C762.156 88.5261 751.413 84.1687 738.759 84.1687C726.106 84.1687 715.363 88.5261 706.529 97.241C697.696 105.541 690.534 116.953 685.043 131.478C679.552 145.588 675.493 161.772 672.867 180.032C670.479 198.292 669.286 217.174 669.286 236.679ZM613.062 236.679C613.062 203.479 615.927 172.77 621.657 144.55C627.387 115.916 635.623 91.016 646.367 69.8514C657.11 48.6867 670.241 32.087 685.759 20.0522C701.516 8.0174 719.183 2 738.759 2C758.575 2 776.242 8.0174 791.76 20.0522C807.278 32.087 820.409 48.6867 831.152 69.8514C841.896 91.016 850.132 115.916 855.862 144.55C861.592 172.77 864.457 203.479 864.457 236.679C864.457 269.048 861.592 299.343 855.862 327.562C850.132 355.367 841.896 379.644 831.152 400.394C820.409 421.143 807.278 437.535 791.76 449.57C776.242 461.19 758.575 467 738.759 467C719.183 467 701.516 461.19 685.759 449.57C670.241 437.535 657.11 421.143 646.367 400.394C635.623 379.644 627.387 355.367 621.657 327.562C615.927 299.343 613.062 269.048 613.062 236.679ZM852.754 12.5823H908.977V374.871H1033.6V457.04H852.754V12.5823ZM1014.9 12.5823H1071.12V374.871H1195.74V457.04H1014.9V12.5823ZM1226.58 12.5823H1282.8V457.04H1226.58V12.5823ZM1338.64 94.751H1262V12.5823H1471.5V94.751H1394.86V457.04H1338.64V94.751Z" stroke="white" stroke-width="2.4031" mask="url(#path-1-outside-1_253_3)"/>
</svg>
