<svg width="267" height="267" viewBox="0 0 267 267" fill="none" xmlns="http://www.w3.org/2000/svg">
<rect width="266.099" height="266.099" rx="19.3136" fill="#5E00FF"/>
<path d="M129.275 173.878C121.536 170.448 130.062 152.2 130.062 152.2C130.062 152.2 118.591 168.825 111.752 163.828C108.747 161.632 107.399 159.255 107.026 155.551C106.176 147.091 126.321 145.5 126.321 145.5C126.321 145.5 106.176 143.909 107.026 135.449C107.399 131.745 108.747 129.368 111.752 127.172C118.591 122.175 130.062 138.8 130.062 138.8C130.062 138.8 121.536 120.552 129.275 117.122C132.649 115.626 135.351 115.626 138.725 117.122C146.464 120.552 137.938 138.8 137.938 138.8C137.938 138.8 149.409 122.175 156.248 127.172C159.253 129.368 160.601 131.745 160.974 135.449C161.824 143.909 141.679 145.5 141.679 145.5C141.679 145.5 161.824 147.091 160.974 155.551C160.601 159.255 159.253 161.632 156.248 163.828C149.409 168.825 137.938 152.2 137.938 152.2C137.938 152.2 146.464 170.448 138.725 173.878C135.351 175.374 132.649 175.374 129.275 173.878Z" fill="url(#paint0_linear_394_2)"/>
<path d="M129.275 173.878C121.536 170.448 130.062 152.2 130.062 152.2C130.062 152.2 118.591 168.825 111.752 163.828C108.747 161.632 107.399 159.255 107.026 155.551C106.176 147.091 126.321 145.5 126.321 145.5C126.321 145.5 106.176 143.909 107.026 135.449C107.399 131.745 108.747 129.368 111.752 127.172C118.591 122.175 130.062 138.8 130.062 138.8C130.062 138.8 121.536 120.552 129.275 117.122C132.649 115.626 135.351 115.626 138.725 117.122C146.464 120.552 137.938 138.8 137.938 138.8C137.938 138.8 149.409 122.175 156.248 127.172C159.253 129.368 160.601 131.745 160.974 135.449C161.824 143.909 141.679 145.5 141.679 145.5C141.679 145.5 161.824 147.091 160.974 155.551C160.601 159.255 159.253 161.632 156.248 163.828C149.409 168.825 137.938 152.2 137.938 152.2C137.938 152.2 146.464 170.448 138.725 173.878C135.351 175.374 132.649 175.374 129.275 173.878Z" stroke="#F6FF00"/>
<path d="M147.561 42.2859C148.072 40.7541 148.357 39.1211 148.357 37.4167C148.357 28.9165 141.467 22 133 22C124.533 22 117.643 28.9165 117.643 37.4167C117.643 39.1187 117.93 40.7516 118.439 42.2859C77.933 52.1328 47 102.285 47 162.526C47 207.451 85.5796 244 133 244C180.42 244 219 207.451 219 162.526C219 102.285 188.067 52.1328 147.561 42.2859ZM114.571 219.333C114.571 222.74 111.822 225.5 108.429 225.5C105.035 225.5 102.286 222.74 102.286 219.333C102.286 215.927 105.035 213.167 108.429 213.167C111.822 213.167 114.571 215.927 114.571 219.333ZM176 108.333V182.333C176 185.735 173.246 188.5 169.857 188.5H96.1429C92.7545 188.5 90 185.732 90 182.333V108.333C90 104.932 92.7545 102.167 96.1429 102.167H169.857C173.246 102.167 176 104.934 176 108.333ZM157.571 213.167C160.965 213.167 163.714 215.927 163.714 219.333C163.714 222.74 160.965 225.5 157.571 225.5C154.178 225.5 151.429 222.74 151.429 219.333C151.429 215.927 154.178 213.167 157.571 213.167ZM126.857 225.5C126.857 222.094 129.607 219.333 133 219.333C136.393 219.333 139.143 222.094 139.143 225.5C139.143 228.906 136.393 231.667 133 231.667C129.607 231.667 126.857 228.906 126.857 225.5ZM126.857 37.4167C126.857 34.0102 129.607 31.25 133 31.25C136.393 31.25 139.143 34.0102 139.143 37.4167C139.143 40.8231 136.393 43.5833 133 43.5833C129.607 43.5833 126.857 40.8231 126.857 37.4167Z" fill="url(#paint1_linear_394_2)"/>
<defs>
<linearGradient id="paint0_linear_394_2" x1="134" y1="116" x2="134" y2="175" gradientUnits="userSpaceOnUse">
<stop stop-color="#F6FF00"/>
<stop offset="1" stop-color="white"/>
</linearGradient>
<linearGradient id="paint1_linear_394_2" x1="133" y1="22" x2="133" y2="244" gradientUnits="userSpaceOnUse">
<stop stop-color="#F7FF00"/>
<stop offset="1" stop-color="white"/>
</linearGradient>
</defs>
</svg>
